<svg xmlns="http://www.w3.org/2000/svg" xmlns:xlink="http://www.w3.org/1999/xlink" width="64" height="64" viewBox="0 0 64 64">
  <defs>
    <polygon id="about_illustration_2-a" points="0 64 64 64 64 0 0 0"/>
  </defs>
  <g fill="none" fill-rule="evenodd">
    <path fill="#00BD86" d="M35,21 L35,15 L16,15 L8,15 C4.134,15 1,18.134 1,22 L1,37 L19,37 L19,21 L35,21 Z"/>
    <path fill="#FFF" d="M17,6 C17,8.762 14.762,11 12,11 C9.238,11 7,8.762 7,6 C7,3.238 9.238,1 12,1 C14.762,1 17,3.238 17,6"/>
    <path fill="#535859" d="M12,2 C9.794,2 8,3.794 8,6 C8,8.206 9.794,10 12,10 C14.206,10 16,8.206 16,6 C16,3.794 14.206,2 12,2 M12,12 C8.691,12 6,9.309 6,6 C6,2.691 8.691,0 12,0 C15.309,0 18,2.691 18,6 C18,9.309 15.309,12 12,12"/>
    <path fill="#535859" d="M64,38 L18,38 L18,20 L34,20 L34,16 L8,16 C4.691,16 2,18.691 2,22 L2,36 L6,36 L6,28 L8,28 L8,38 L0,38 L0,22 C0,17.589 3.589,14 8,14 L36,14 L36,22 L20,22 L20,36 L62,36 L62,7 L20,7 L20,5 L64,5 L64,38 Z"/>
    <mask id="about_illustration_2-b" fill="#fff">
      <use xlink:href="#about_illustration_2-a"/>
    </mask>
    <polygon fill="#535859" points="22 34 60 34 60 32 22 32" mask="url(#about_illustration_2-b)"/>
    <path fill="#FFF" d="M3,63 C2,63 1,61.657 1,60 L1,58 L8,54 L14,54 L21,58 L29,54 L35,54 L43,58 L50,54 L56,54 L63,58 L63,60 C63,61.657 62,63 61,63 L3,63 Z" mask="url(#about_illustration_2-b)"/>
    <path fill="#535859" d="M2,58.5801 L2,60.0001 C2,61.2241 2.703,62.0001 3,62.0001 L61,62.0001 C61.297,62.0001 62,61.2241 62,60.0001 L62,58.5801 L55.734,55.0001 L50.266,55.0001 L43.031,59.1341 L34.764,55.0001 L29.236,55.0001 L20.969,59.1341 L13.734,55.0001 L8.266,55.0001 L2,58.5801 Z M61,64.0001 L3,64.0001 C1.374,64.0001 0,62.1681 0,60.0001 L0,57.4201 L7.734,53.0001 L14.266,53.0001 L21.031,56.8661 L28.764,53.0001 L35.236,53.0001 L42.969,56.8661 L49.734,53.0001 L56.266,53.0001 L64,57.4201 L64,60.0001 C64,62.1681 62.626,64.0001 61,64.0001 Z" mask="url(#about_illustration_2-b)"/>
    <path fill="#FFC900" d="M16,48.5 C16,52 14.037,55 11,55 C7.963,55 6,52 6,48.5 C6,45 7,43 11,43 C15,43 16,45 16,48.5" mask="url(#about_illustration_2-b)"/>
    <path fill="#535859" d="M11,44 C7.972,44 7,45.093 7,48.5 C7,51.167 8.402,54 11,54 C13.598,54 15,51.167 15,48.5 C15,45.093 14.028,44 11,44 M11,56 C7.579,56 5,52.776 5,48.5 C5,45.474 5.682,42 11,42 C16.318,42 17,45.474 17,48.5 C17,52.776 14.421,56 11,56" mask="url(#about_illustration_2-b)"/>
    <path fill="#FFF" d="M37,48.5 C37,52 35.037,55 32,55 C28.963,55 27,52 27,48.5 C27,45 28,43 32,43 C36,43 37,45 37,48.5" mask="url(#about_illustration_2-b)"/>
    <path fill="#535859" d="M32,44 C28.972,44 28,45.093 28,48.5 C28,51.167 29.402,54 32,54 C34.598,54 36,51.167 36,48.5 C36,45.093 35.028,44 32,44 M32,56 C28.579,56 26,52.776 26,48.5 C26,45.474 26.682,42 32,42 C37.318,42 38,45.474 38,48.5 C38,52.776 35.421,56 32,56" mask="url(#about_illustration_2-b)"/>
    <path fill="#FFC900" d="M58,48.5 C58,52 56.037,55 53,55 C49.963,55 48,52 48,48.5 C48,45 49,43 53,43 C57,43 58,45 58,48.5" mask="url(#about_illustration_2-b)"/>
    <path fill="#535859" d="M53,44 C49.972,44 49,45.093 49,48.5 C49,51.167 50.402,54 53,54 C55.598,54 57,51.167 57,48.5 C57,45.093 56.028,44 53,44 M53,56 C49.579,56 47,52.776 47,48.5 C47,45.474 47.682,42 53,42 C58.318,42 59,45.474 59,48.5 C59,52.776 56.421,56 53,56" mask="url(#about_illustration_2-b)"/>
    <polygon fill="#535859" points="20 61 22 61 22 58 20 58" mask="url(#about_illustration_2-b)"/>
    <polygon fill="#535859" points="42 61 44 61 44 58 42 58" mask="url(#about_illustration_2-b)"/>
    <polygon fill="#535859" points="11 20 13 20 13 18 11 18" mask="url(#about_illustration_2-b)"/>
  </g>
</svg>
