<svg xmlns="http://www.w3.org/2000/svg" xmlns:xlink="http://www.w3.org/1999/xlink" width="60" height="64" viewBox="0 0 60 64">
  <defs>
    <polygon id="about_illustration_3-a" points="0 64 60 64 60 0 0 0"/>
  </defs>
  <g fill="none" fill-rule="evenodd">
    <path fill="#00BD86" d="M59,34 C59,50.016 46.016,63 30,63 C13.984,63 1,50.016 1,34 C1,17.984 13.984,5 30,5 C46.016,5 59,17.984 59,34"/>
    <path fill="#FFF" d="M46,29 L36.5,38.5 L20,22 L1.695,40.305 C1.764,40.615 1.831,40.926 1.909,41.232 C5.123,53.748 16.481,63 30,63 C38.362,63 45.894,59.455 51.185,53.793 C54.476,50.273 56.9,45.936 58.117,41.117 L46,29 Z"/>
    <path fill="#4D5152" d="M30,64 C13.458,64 0,50.542 0,34 C0,25.303 3.771,17.042 10.345,11.335 L11.655,12.846 C5.52,18.172 2,25.883 2,34 C2,49.439 14.561,62 30,62 C45.439,62 58,49.439 58,34 C58,23.347 52.083,13.754 42.557,8.967 L43.455,7.18 C53.66,12.309 60,22.586 60,34 C60,50.542 46.542,64 30,64"/>
    <path fill="#4D5152" d="M50.293,53.707 L20,23.414 L2.707,40.707 L1.293,39.293 L19.293,21.293 C19.684,20.902 20.316,20.902 20.707,21.293 L51.707,52.293 L50.293,53.707 Z"/>
    <path fill="#4D5152" d="M57.293,41.707 L46,30.414 L37.707,38.707 L36.293,37.293 L45.293,28.293 C45.684,27.902 46.316,27.902 46.707,28.293 L58.707,40.293 L57.293,41.707 Z"/>
    <mask id="about_illustration_3-b" fill="#fff">
      <use xlink:href="#about_illustration_3-a"/>
    </mask>
    <polygon fill="#FFC900" points="20 10 35 10 35 0 20 0" mask="url(#about_illustration_3-b)"/>
    <polygon fill="#4D5152" points="19 22 21 22 21 0 19 0" mask="url(#about_illustration_3-b)"/>
    <path fill="#4D5152" d="M30,58 C19.459,58 10.235,51.291 7.047,41.304 L8.953,40.696 C11.875,49.85 20.333,56 30,56 C34.49,56 38.79,54.678 42.434,52.176 L43.566,53.824 C39.587,56.556 34.896,58 30,58" mask="url(#about_illustration_3-b)"/>
    <polygon fill="#4D5152" points="19 29 21 29 21 27 19 27" mask="url(#about_illustration_3-b)"/>
    <polygon fill="#4D5152" points="19 33 21 33 21 31 19 31" mask="url(#about_illustration_3-b)"/>
    <polygon fill="#4D5152" points="19 37 21 37 21 35 19 35" mask="url(#about_illustration_3-b)"/>
  </g>
</svg>
