<svg xmlns="http://www.w3.org/2000/svg" viewBox="0 0 500.83 28.18"><defs><style>.a{fill:#231e1f;}</style></defs><title>Asset 1</title><path class="a" d="M5.93,21.54c0,1.82-.32,4.76,1.7,5.53v.12H0v-.12c2.06-.73,1.82-3.71,1.82-5.53V6.32c0-1.86.24-4.8-1.82-5.57V.63H12.92a4.17,4.17,0,0,0,1.9-.2h.12V5.11h-.12c-1.25-1.41-2.91-1.57-4.76-1.57a23,23,0,0,0-4.12.28v7.51h4.84a4.09,4.09,0,0,0,1.74-.24h.12v4.28h-.12c-.65-1.21-2.34-1.13-3.59-1.13h-3v7.3Z"/><path class="a" d="M20.65,24.81l3.59.34a7,7,0,0,0,5.23-1.67h.08l-1.27,3.7H16.5V27.1c1.44-.51,1.27-2.6,1.27-3.87V12.58c0-1.3.17-3.36-1.27-3.9V8.6h9a2.87,2.87,0,0,0,1.33-.14H27v3.3h-.08a4,4,0,0,0-3.33-1.13,15.83,15.83,0,0,0-2.88.2v5.25H24a2.87,2.87,0,0,0,1.24-.17h.08v3h-.08c-.45-.82-1.64-.79-2.51-.79H20.66v6.7Z"/><path class="a" d="M32.48,12.47c0-1.3.2-3.36-1.24-3.78V8.61h6.92c6.44,0,10.45,3.5,10.45,9.12S44.35,27.19,38,27.19H31.24v-.08c1.41-1,1.24-2.32,1.24-4ZM35.37,25a10.13,10.13,0,0,0,2.06.2c4.21,0,8-2.2,8-7.09s-2.77-7.43-7.48-7.43a11,11,0,0,0-2.54.31V25Z"/><path class="a" d="M54.23,24.81l3.59.34a7,7,0,0,0,5.23-1.67h.08l-1.27,3.7H50.08V27.1c1.44-.51,1.27-2.6,1.27-3.87V12.58c0-1.3.17-3.36-1.27-3.9V8.6h9a2.87,2.87,0,0,0,1.33-.14h.08v3.3h-.08a4,4,0,0,0-3.33-1.13,15.83,15.83,0,0,0-2.88.2v5.25H57.6a2.87,2.87,0,0,0,1.24-.17h.08v3h-.08c-.45-.82-1.64-.79-2.51-.79H54.24v6.7Z"/><path class="a" d="M71.13,8.6c3.78,0,5.85,2,5.85,4.55s-2.17,4.43-4.49,5l4.07,5.11a19.7,19.7,0,0,0,4.58,3.95h-2.6a3.73,3.73,0,0,1-3.28-1.41L71.81,21.5l-2.6-4c2.26-.34,4.89-1.38,4.89-4a3.25,3.25,0,0,0-3.64-3.14,14,14,0,0,0-1.92.23V23.22c0,1.3-.17,3.36,1.27,3.87v.08H64.42v-.08c1.44-.51,1.24-2.6,1.24-3.87V12.58c0-1.3.2-3.36-1.24-3.9V8.6Z"/><path class="a" d="M85.28,20.21l-1.47,4c-.59,1.58-.79,2.4.56,2.91v.08h-5.2V27.1c1.64-.82,2.12-2.4,2.74-4l4.72-11.78c.4-1,.93-2.2-.42-2.63V8.6h4.46l5.87,14.49c.65,1.61,1.16,3.19,2.77,4v.08H93.52V27.1c1.38-.62,1.16-.93.4-2.91l-1.53-4ZM88.81,11,86,18.12h5.56Z"/><path class="a" d="M108.34,25.15a7,7,0,0,0,5-1.72h.08L112,27.19H100.34v-.08c1.44-.51,1.27-2.6,1.27-3.87V12.58c0-1.3.17-3.36-1.27-3.9V8.6h5.39v.08c-1.44.54-1.24,2.63-1.24,3.9V24.89Z"/><path class="a" d="M136.3.63c5.41,0,8.35,2.83,8.35,6.5s-3.11,6.34-6.42,7.1L144,21.54a28.12,28.12,0,0,0,6.54,5.65h-3.71a5.28,5.28,0,0,1-4.68-2l-4.92-6.09-3.71-5.69c3.23-.48,7-2,7-5.77,0-2.91-2.5-4.6-5.21-4.48a21.1,21.1,0,0,0-2.74.32V21.54c0,1.86-.24,4.8,1.82,5.53v.12h-7.72v-.12c2.06-.73,1.78-3.71,1.78-5.53V6.32c0-1.86.28-4.8-1.78-5.57V.63Z"/><path class="a" d="M153.43,24.81l3.59.34a7,7,0,0,0,5.23-1.67h.08l-1.27,3.7H149.28V27.1c1.44-.51,1.27-2.6,1.27-3.87V12.58c0-1.3.17-3.36-1.27-3.9V8.6h9a2.87,2.87,0,0,0,1.33-.14h.08v3.3h-.08a4,4,0,0,0-3.33-1.13,15.83,15.83,0,0,0-2.88.2v5.25h3.36a2.87,2.87,0,0,0,1.24-.17h.08v3H158c-.45-.82-1.64-.79-2.51-.79h-2.09v6.7Z"/><path class="a" d="M175.1,12a6.42,6.42,0,0,0-4.43-1.78c-1.61,0-3.64.62-3.64,2.57,0,3.87,9.72,3.81,9.72,9,0,3-3.16,5.85-7.57,5.85a14.5,14.5,0,0,1-5.06-.85l-.82-3.53a9.78,9.78,0,0,0,6.19,2.34c1.61,0,4-1,4-2.94,0-4.41-9.72-3.62-9.72-9.6,0-3.56,3.64-4.91,7.09-4.91a14.36,14.36,0,0,1,4.21.62V12Z"/><path class="a" d="M182.59,24.81l3.59.34a7,7,0,0,0,5.23-1.67h.08l-1.27,3.7H178.44V27.1c1.44-.51,1.27-2.6,1.27-3.87V12.58c0-1.3.17-3.36-1.27-3.9V8.6h9a2.87,2.87,0,0,0,1.33-.14h.08v3.3h-.08a4,4,0,0,0-3.33-1.13,15.83,15.83,0,0,0-2.88.2v5.25H186a2.87,2.87,0,0,0,1.24-.17h.08v3h-.08c-.45-.82-1.64-.79-2.51-.79H182.6v6.7Z"/><path class="a" d="M199.55,8.6c3.78,0,5.85,2,5.85,4.55s-2.17,4.43-4.49,5L205,23.23a19.7,19.7,0,0,0,4.58,3.95H207a3.73,3.73,0,0,1-3.28-1.41l-3.45-4.27-2.6-4c2.26-.34,4.89-1.38,4.89-4a3.25,3.25,0,0,0-3.64-3.14,14,14,0,0,0-1.92.23V23.22c0,1.3-.17,3.36,1.27,3.87v.08h-5.39v-.08c1.44-.51,1.24-2.6,1.24-3.87V12.58c0-1.3.2-3.36-1.24-3.9V8.6Z"/><path class="a" d="M219.84,13.71c.76-2,1.72-4.32,0-5V8.6H224L216.56,28c-2-1.3-2.63-1.53-3.45-3.76l-4.27-11.55c-.54-1.44-1-3.08-2.2-4V8.6h4.12l0,.34a11.86,11.86,0,0,0,.76,2.63L216,23.86Z"/><path class="a" d="M229.73,24.81l3.59.34a7,7,0,0,0,5.23-1.67h.08l-1.27,3.7H225.58V27.1c1.44-.51,1.27-2.6,1.27-3.87V12.58c0-1.3.17-3.36-1.27-3.9V8.6h9A2.87,2.87,0,0,0,236,8.46H236v3.3H236a4,4,0,0,0-3.33-1.13,15.83,15.83,0,0,0-2.88.2v5.25h3.36a2.87,2.87,0,0,0,1.24-.17h.08v3h-.08c-.45-.82-1.64-.79-2.51-.79h-2.09v6.7Z"/><path class="a" d="M254.14,6.28c0-1.82.28-4.76-1.78-5.53V.63h9.57c5.33,0,8.43,2.26,8.43,5.85,0,2.7-1.74,4.24-4,5.25,3.63.77,6.58,3.19,6.58,7.14a8.11,8.11,0,0,1-4.84,7.06c-2.83,1.37-6,1.25-9,1.25h-6.66v-.12c2-.77,1.78-3.71,1.78-5.57V6.28Zm5.45,5.05c2.62,0,6.38-.89,6.38-4.2,0-2.78-2.58-4.24-5-4l-2.7.28v7.91h1.32Zm2.17,13c3.31.32,6.66-1.21,6.66-5.05s-3.79-5.61-7.34-5.41l-2.83.16V24Z"/><path class="a" d="M278.25,20.21l-1.47,4c-.59,1.58-.79,2.4.56,2.91v.08h-5.2V27.1c1.64-.82,2.12-2.4,2.74-4l4.72-11.78c.4-1,.93-2.2-.42-2.63V8.6h4.46l5.88,14.49c.65,1.61,1.16,3.19,2.77,4v.08H286.5V27.1c1.38-.62,1.16-.93.4-2.91l-1.53-4ZM281.78,11,279,18.12h5.56Z"/><path class="a" d="M296.67,23.51c0,1.58,0,2.71,1.47,3.59v.08h-5V27.1c1.5-.88,1.5-2,1.5-3.59V12.24c0-1.58,0-2.71-1.47-3.56V8.6h4.12v0a1.84,1.84,0,0,0,.42.71l.4.56L308.45,23V12.25c0-1.58,0-2.71-1.47-3.56V8.61h5v.08c-1.47.85-1.47,2-1.47,3.56V28.1a7.82,7.82,0,0,1-4.12-3.22l-9.69-12.29Z"/><path class="a" d="M315.67,12.56c0-1.27.17-3.33-1.27-3.87V8.61h5.42v.08c-1.44.51-1.27,2.6-1.27,3.87V23.21c0,1.3-.17,3.36,1.27,3.9v.08H314.4v-.08c1.44-.54,1.27-2.63,1.27-3.9Zm6.95,0c.93-1.33,2.63-3.08.73-3.93V8.6h5.08v0L321.93,17l5.71,7.48A8.85,8.85,0,0,0,331,27.09v.08h-2.66A4.26,4.26,0,0,1,325.18,26l-6.27-8.45Z"/><path class="a" d="M341.85,12.32a5.48,5.48,0,0,1,3.95-1.74c2.31,0,3.25,1.59,3.2,3.54a8.39,8.39,0,0,1-2.55,5.64,5.63,5.63,0,0,1-4.11,1.79,3,3,0,0,1-3.22-3.41A8.93,8.93,0,0,1,341.85,12.32Zm2.58,6.76a14.43,14.43,0,0,0,2.18-6.16c0-.7-.1-1.4-.83-1.4-.47,0-1,.29-1.69,1.14a13.54,13.54,0,0,0-2.57,6.6c0,.78.34,1.35.94,1.35S343.65,20.2,344.43,19.08Z"/><path class="a" d="M355.79,12.09c-.88,2.6-2.08,7.33-2.89,9.88a15.5,15.5,0,0,1-2,4.42,4.88,4.88,0,0,1-3.54,1.79,2,2,0,0,1-2.18-1.74,1.12,1.12,0,0,1,1-1.22.91.91,0,0,1,.81.52c.49.78,1.07,1.3,1.51,1.3s.75-.42,1.27-2.21c.88-3.12,2.13-8.17,3.43-12.74h-2.31a.83.83,0,0,1,.31-1.14h2.31a18.2,18.2,0,0,1,2.24-5.33,6,6,0,0,1,5-3c1.61,0,2.6.94,2.6,2a1.69,1.69,0,0,1-1.4,1.77c-.36,0-.52-.16-.57-.52-.21-1.77-1-2.31-1.48-2.31s-1.2.65-1.74,1.74a33.53,33.53,0,0,0-2,5.67h3.09a.86.86,0,0,1-.31,1.14Z"/><path class="a" d="M392.37,5.64a14,14,0,0,0-7.47-2.3c-5.57,0-9.44,4.08-9.44,9.93s4,11.22,10.25,11.22a17.84,17.84,0,0,0,8.6-2.54h.12l-2.06,4.68a14.29,14.29,0,0,1-6.09,1.21c-9.53,0-15.42-5.33-15.42-14C370.86,5.53,376.75,0,385,0a31.9,31.9,0,0,1,7.34,1Z"/><path class="a" d="M399.83,18.12v5.11c0,1.27-.17,3.33,1.24,3.87v.08H395.7V27.1c1.41-.54,1.24-2.6,1.24-3.87V12.55c0-1.27.2-3.33-1.24-3.87V8.6h5.37v.08c-1.41.54-1.24,2.6-1.24,3.9v3.5H410v-3.5c0-1.3.2-3.36-1.24-3.9V8.6h5.39v.08c-1.44.54-1.27,2.6-1.27,3.87V23.23c0,1.27-.17,3.33,1.27,3.87v.08h-5.39V27.1c1.44-.54,1.24-2.6,1.24-3.87V18.12Z"/><path class="a" d="M418.21,12.58c0-1.3.2-3.36-1.24-3.9V8.6h5.37v.08c-1.41.54-1.24,2.63-1.24,3.9V23.23c0,1.27-.17,3.33,1.24,3.87v.08H417V27.1c1.41-.51,1.24-2.6,1.24-3.87Z"/><path class="a" d="M439.23,12.1A9.79,9.79,0,0,0,434,10.49c-3.9,0-6.61,2.85-6.61,7s2.82,7.85,7.17,7.85a12.43,12.43,0,0,0,6-1.78h.08l-1.44,3.28a10,10,0,0,1-4.26.85c-6.67,0-10.79-3.73-10.79-9.77,0-5.85,4.12-9.72,9.91-9.72a22.34,22.34,0,0,1,5.14.71V12.1Z"/><path class="a" d="M447.37,20.21l-1.47,4c-.59,1.58-.79,2.4.56,2.91v.08h-5.2V27.1c1.64-.82,2.12-2.4,2.74-4l4.72-11.78c.4-1,.93-2.2-.42-2.63V8.6h4.46l5.88,14.49c.65,1.61,1.16,3.19,2.77,4v.08h-5.79V27.1c1.38-.62,1.16-.93.4-2.91l-1.53-4ZM450.9,11l-2.8,7.12h5.56Z"/><path class="a" d="M476.21,11.88h-.08c-1.16-1.3-3.3-1.69-5-1.69-4.41,0-7.77,2.88-7.77,7.43a8,8,0,0,0,8.08,8,14.22,14.22,0,0,0,3.93-.54V21c0-1.3,0-2.68-1.3-3.19v-.08h4.32v.08a3.36,3.36,0,0,0-.14,1.21v6.5a3.19,3.19,0,0,0,.14,1.27,36.77,36.77,0,0,1-6.75.85c-7.23,0-11.5-3.95-11.5-9.63,0-6.07,4.83-9.86,11.67-9.86a21.24,21.24,0,0,1,4.43.48v3.25Z"/><path class="a" d="M500.83,17.7c0,5.76-4.77,9.94-10.39,9.94s-10.31-4-10.31-9.8c0-5.37,4.66-9.86,10.59-9.72A9.75,9.75,0,0,1,500.83,17.7Zm-17.49-.12c0,4,2.8,8,7.23,8s7-3.14,7-7.34-2.63-8.11-7.09-8.11S483.34,13.32,483.34,17.58Z"/></svg>